<svg xmlns="http://www.w3.org/2000/svg" viewBox="0 0 320 520" role="img" aria-label="Biblical Financial Courses mark">
  <defs>
    <style>
      .cross { fill: #a47551; }
      .dove { fill: #ffffff; stroke: #0b0b0b; stroke-width: 8; stroke-linecap: round; stroke-linejoin: round; }
      .mark-stroke { fill: none; stroke: #0b0b0b; stroke-width: 6; stroke-linecap: round; }
    </style>
  </defs>

  <!-- Cross -->
  <rect class="cross" x="96" y="36" width="120" height="370" rx="12" />
  <rect class="cross" x="30" y="180" width="260" height="88" rx="14" />

  <!-- Dove + flowing form -->
  <path class="dove" d="M238 104c18 30 26 66 20 98l55 20c-26 7-52 7-74 0 12 32 4 74-22 108-36 48-92 79-132 90 40-32 64-90 50-142-14-54-56-99-56-99l58 16 30-70 32 36z" />
  <path class="mark-stroke" d="M258 232c32 12 68 12 104 0-20 38-56 67-104 80" />
  <circle class="dove" cx="220" cy="86" r="20" />
  <path class="mark-stroke" d="M202 80c-18-6-34-6-50 0 12 18 32 30 52 34" />
</svg>

