<svg xmlns="http://www.w3.org/2000/svg" viewBox="0 0 320 320">
  <defs>
    <style>
      .cross { fill: #a47551; }
      .dove { fill: #ffffff; stroke: #0b0b0b; stroke-width: 12; stroke-linecap: round; stroke-linejoin: round; }
      .mark-stroke { fill: none; stroke: #0b0b0b; stroke-width: 10; stroke-linecap: round; }
    </style>
  </defs>
  <rect class="cross" x="116" y="14" width="88" height="200" rx="10" />
  <rect class="cross" x="62" y="102" width="196" height="64" rx="12" />
  <path class="dove" d="M212 78c12 18 16 40 12 60l38 12c-18 4-36 4-50 0 8 20 2 46-14 67-22 30-56 48-82 54 24-20 38-52 30-86-8-32-34-60-34-60l38 10 18-44 20 24z" />
  <path class="mark-stroke" d="M224 154c20 8 42 8 64 0-12 22-34 38-64 44" />
  <circle class="dove" cx="196" cy="64" r="14" />
  <path class="mark-stroke" d="M184 60c-12-4-22-4-32 0 8 12 20 18 32 20" />
</svg>

